<?xml version="1.0" encoding="utf-8"?>
<!-- Generator: Adobe Illustrator 27.0.0, SVG Export Plug-In . SVG Version: 6.00 Build 0)  -->
<svg version="1.1" id="Layer_1" xmlns="http://www.w3.org/2000/svg" xmlns:xlink="http://www.w3.org/1999/xlink" x="0px" y="0px"
	 viewBox="0 0 512 512" style="enable-background:new 0 0 512 512;" xml:space="preserve">
<style type="text/css">
	.st0{fill:#F5F5F5;}
</style>
<g>
	<path class="st0" d="M349.4,132.4C324,112.1,293.2,96,256,96c-88.4,0-160,71.7-159.9,160.1S167.8,416,256.1,416
		c67.6,0,127.8-42.5,150.6-106.1c3.9-11.1,15.1-18.6,26.7-16.1l20.9,4.4c11.5,2.4,19,13.8,15.5,25C441.1,414.1,356.3,480,256,480
		C132.3,480,32,379.7,32,256S132.3,32,256,32c59.4,0,105.6,27.1,138.9,54.9l38-38c8.3-8.3,21.8-8.3,30.2,0c4,4,6.2,9.4,6.2,15.1
		v117.3c0,11.8-9.6,21.3-21.3,21.3H330.7c-11.8,0-21.3-9.6-21.3-21.3c0-5.7,2.2-11.1,6.2-15.1L349.4,132.4z"/>
</g>
</svg>
