<?xml version="1.0" encoding="UTF-8"?>
<svg id="Layer_2" data-name="Layer 2" xmlns="http://www.w3.org/2000/svg" viewBox="0 0 498.58 512">
  <defs>
    <style>
      .cls-1 {
        fill: #f5f5f5;
      }
    </style>
  </defs>
  <g id="Layer_1-2" data-name="Layer 1">
    <path class="cls-1" d="M489.95,312.11l-47.06-36.8c.6-5.67,1.11-12.31,1.11-19.33s-.49-13.65-1.11-19.33l47.1-36.82c8.75-6.91,11.14-19.18,5.57-29.4l-48.94-84.67c-5.23-9.56-16.68-14.46-28.31-10.18l-55.53,22.29c-10.64-7.68-21.8-14.17-33.34-19.35l-8.45-58.9c-1.39-11.18-11.11-19.63-22.61-19.63h-98.13c-11.5,0-21.21,8.45-22.57,19.46l-8.47,59.11c-11.18,5.04-22.16,11.43-33.28,19.35l-55.68-22.36c-10.43-4.03-22.91,.49-28.1,10L3.14,170.35c-5.78,9.77-3.39,22.46,5.55,29.55l47.06,36.8c-.75,7.19-1.11,13.44-1.11,19.31s.36,12.12,1.11,19.33l-47.1,36.82c-8.75,6.93-11.11,19.2-5.55,29.4l48.94,84.67c5.23,9.54,16.58,14.48,28.31,10.18l55.53-22.29c10.62,7.66,21.78,14.14,33.32,19.35l8.45,58.88c1.39,11.22,11.09,19.67,22.61,19.67h98.13c11.5,0,21.23-8.45,22.59-19.46l8.47-59.09c11.18-5.06,22.14-11.43,33.28-19.37l55.68,22.36c2.66,1.04,5.5,1.58,8.36,1.58,8.28,0,15.89-4.52,19.73-11.56l49.15-85.12c5.46-9.98,3.07-22.25-5.72-29.23h0Zm-240.64,29.23c-47.06,0-85.33-38.27-85.33-85.33s38.27-85.33,85.33-85.33,85.33,38.27,85.33,85.33-38.27,85.33-85.33,85.33Z"/>
  </g>
</svg>